<svg xmlns="http://www.w3.org/2000/svg" xmlns:xlink="http://www.w3.org/1999/xlink" width="500" zoomAndPan="magnify" viewBox="0 0 375 374.999991" height="500" preserveAspectRatio="xMidYMid meet" version="1.0"><defs><clipPath id="66f30276b1"><path d="M 112.5 112.5 L 262.5 112.5 L 262.5 262.5 L 112.5 262.5 Z M 112.5 112.5 " clip-rule="nonzero"/></clipPath></defs><g clip-path="url(#66f30276b1)"><path fill="#ffda6c" d="M 187.5 116.953125 C 148.601562 116.953125 116.953125 148.601562 116.953125 187.5 C 116.953125 226.398438 148.601562 258.042969 187.5 258.042969 C 226.398438 258.042969 258.042969 226.398438 258.042969 187.5 C 258.042969 148.601562 226.398438 116.953125 187.5 116.953125 Z M 187.5 262.5 C 146.144531 262.5 112.5 228.855469 112.5 187.5 C 112.5 146.144531 146.144531 112.5 187.5 112.5 C 228.855469 112.5 262.5 146.144531 262.5 187.5 C 262.5 228.855469 228.855469 262.5 187.5 262.5 " fill-opacity="1" fill-rule="nonzero"/></g><path fill="#008cc9" d="M 253.578125 187.5 C 253.578125 223.992188 223.992188 253.578125 187.5 253.578125 C 151.003906 253.578125 121.421875 223.992188 121.421875 187.5 C 121.421875 151.003906 151.003906 121.421875 187.5 121.421875 C 223.992188 121.421875 253.578125 151.003906 253.578125 187.5 " fill-opacity="1" fill-rule="nonzero"/><path fill="#e1e1e1" d="M 211.972656 173.390625 C 211.972656 186.90625 201.015625 197.863281 187.5 197.863281 C 173.984375 197.863281 163.027344 186.90625 163.027344 173.390625 C 163.027344 159.875 173.984375 148.917969 187.5 148.917969 C 201.015625 148.917969 211.972656 159.875 211.972656 173.390625 " fill-opacity="1" fill-rule="nonzero"/><path fill="#e1e1e1" d="M 187.5 202.925781 C 168.128906 202.925781 151.886719 216.253906 147.40625 234.234375 C 158.191406 243.5 172.195312 249.121094 187.5 249.121094 C 202.800781 249.121094 216.808594 243.5 227.59375 234.234375 C 223.109375 216.253906 206.871094 202.925781 187.5 202.925781 " fill-opacity="1" fill-rule="nonzero"/></svg>